<svg xmlns="http://www.w3.org/2000/svg" width="29.77" height="28.282"><path d="M28.281 4.4a23.225 23.225 0 01-.2 2.862 6.2 6.2 0 01-.149.81 17.385 17.385 0 011.837 8.3 10.771 10.771 0 01-4.519 8.763 17.314 17.314 0 01-10.366 3.145 17.314 17.314 0 01-10.365-3.144A10.771 10.771 0 010 16.374a17.35 17.35 0 011.838-8.3 6.2 6.2 0 01-.149-.81 22.379 22.379 0 01-.2-2.862 23.52 23.52 0 01.3-3.042A1.4 1.4 0 012.468.177a2.038 2.038 0 011.6-.025 25.2 25.2 0 015.111 2.1 19.885 19.885 0 015.705-.762 19.814 19.814 0 015.7.764A25.01 25.01 0 0125.7.153a2.038 2.038 0 011.6.024 1.405 1.405 0 01.685 1.183 23.782 23.782 0 01.295 3.04zm-1.488 11.97c0-2.511-.578-5.954-3.721-5.954a15.288 15.288 0 00-4.1.744 15.235 15.235 0 01-4.089.744 15.235 15.235 0 01-4.089-.744 15.278 15.278 0 00-4.1-.744c-3.135 0-3.721 3.453-3.721 5.954a7.8 7.8 0 003.328 6.381 14.342 14.342 0 008.58 2.55 14.356 14.356 0 008.58-2.55 7.8 7.8 0 003.332-6.377zm-14.885.744c0 2.054-1 3.721-2.233 3.721s-2.233-1.667-2.233-3.721 1-3.721 2.233-3.721 2.233 1.671 2.233 3.725zm8.187 3.721c1.232 0 2.233-1.667 2.233-3.721s-1-3.721-2.233-3.721-2.233 1.667-2.233 3.721 1 3.725 2.233 3.725z" fill-rule="evenodd"/></svg>