<svg xmlns="http://www.w3.org/2000/svg" width="29.77" height="29.77"><path d="M0 5.954A5.954 5.954 0 015.954 0h17.862a5.954 5.954 0 015.954 5.954v17.862a5.954 5.954 0 01-5.954 5.954H5.954A5.954 5.954 0 010 23.816zm5.954-2.977a2.977 2.977 0 00-2.977 2.977v17.862a2.977 2.977 0 002.977 2.977h17.862a2.977 2.977 0 002.977-2.977V5.954a2.977 2.977 0 00-2.977-2.977zm8.931 7.442a4.465 4.465 0 104.465 4.465 4.465 4.465 0 00-4.465-4.465zm-7.443 4.466a7.442 7.442 0 117.442 7.442 7.442 7.442 0 01-7.442-7.442zm15.63-5.954A2.233 2.233 0 1020.839 6.7a2.233 2.233 0 002.233 2.231z" fill-rule="evenodd"/></svg>