<svg xmlns="http://www.w3.org/2000/svg" width="29.77" height="29.77"><path d="M5.954 0A5.954 5.954 0 000 5.954v17.862a5.954 5.954 0 005.954 5.954h17.862a5.954 5.954 0 005.954-5.954V5.954A5.954 5.954 0 0023.816 0zM2.977 5.954a2.977 2.977 0 012.977-2.977h17.862a2.977 2.977 0 012.977 2.977v17.862a2.977 2.977 0 01-2.977 2.977H5.954a2.977 2.977 0 01-2.977-2.977zm7.442 7.446a1.488 1.488 0 10-2.977 0v8.931a1.488 1.488 0 102.977 0zm.744-5.21a2.233 2.233 0 11-2.232-2.236 2.233 2.233 0 012.233 2.233zm3.721 3.721a1.486 1.486 0 011.221.637 5.225 5.225 0 012.5-.637 5.348 5.348 0 015.21 5.315v5.1a1.488 1.488 0 01-2.977 0v-5.104a2.375 2.375 0 00-2.233-2.338 2.62 2.62 0 00-2.233 1.433v6.011a1.488 1.488 0 11-2.977 0V13.4a1.488 1.488 0 011.49-1.492z" fill-rule="evenodd"/></svg>