<svg xmlns="http://www.w3.org/2000/svg" width="32.003" height="31.258"><path d="M3.721 15.629a12.648 12.648 0 115.891 10.7 1.488 1.488 0 00-1.222-.168L4.1 27.436l1.619-3.776a1.488 1.488 0 00-.1-1.369 12.587 12.587 0 01-1.898-6.662zM16.374 0A15.633 15.633 0 002.687 23.18l-2.568 6a1.488 1.488 0 001.8 2.011l6.7-2A15.63 15.63 0 1016.374 0zm3.413 18.877l-1.957 1.378a13.9 13.9 0 01-2.944-2.267 15.186 15.186 0 01-2.417-3.147l1.243-1.055a1.488 1.488 0 00.351-1.834l-1.585-2.976a1.488 1.488 0 00-2.292-.421l-.47.409a3.96 3.96 0 00-1.244 4.245 17.935 17.935 0 004.309 6.886 15.573 15.573 0 007.045 4.175 3.836 3.836 0 003.376-.816l.88-.717A1.488 1.488 0 0023.9 20.3l-2.5-1.488a1.488 1.488 0 00-1.619.061z" fill-rule="evenodd"/></svg>