<svg xmlns="http://www.w3.org/2000/svg" width="31.181" height="26.052"><path d="M19.825 2.977a4.594 4.594 0 00-4.506 5.5 1.488 1.488 0 01-1.641 1.765 16.622 16.622 0 01-8.684-3.786 5.566 5.566 0 001.031 2.846l1.011 1.494-1.66.707-.32.137a8.43 8.43 0 00.844.826 12.235 12.235 0 001.355 1.006l.016.01 2.3 1.4-2.401 1.204q-.179.089-.357.161a7.949 7.949 0 001.7 1.081l2.069.978L8.844 19.8a7.591 7.591 0 01-3.13 1.742 13.022 13.022 0 006.149 1.529 12.81 12.81 0 0012.914-12.7v-.774l.633-.445a6.637 6.637 0 002.187-2.7h-3.216l-.4-.848a4.594 4.594 0 00-4.15-2.623zM3.035 13.842a1.488 1.488 0 00-.353 1.186 5.454 5.454 0 001.67 3 9.021 9.021 0 00.685.612l-.112.03a9.94 9.94 0 01-3.291.06 1.488 1.488 0 00-1.21 2.522 15.951 15.951 0 0011.438 4.8 15.8 15.8 0 0015.873-14.936 10.966 10.966 0 003.4-5.78 1.488 1.488 0 00-1.441-1.865h-3.5A7.57 7.57 0 0012.28 6.953a13.715 13.715 0 01-7.027-4.428 1.488 1.488 0 00-2.49.342 7.816 7.816 0 00-.068 6.543l-.348.149a1.488 1.488 0 00-.848 1.776 6.37 6.37 0 001.534 2.507z" fill-rule="evenodd"/></svg>