<svg xmlns="http://www.w3.org/2000/svg" width="29.77" height="29.77"><path d="M14.885 2.977a11.908 11.908 0 105 22.717 1.489 1.489 0 011.253 2.7 14.887 14.887 0 118.63-13.511v.028c-.063 3.26-1.1 5.455-2.63 6.817a6.816 6.816 0 01-4.5 1.694 5.012 5.012 0 01-4.224-2.313c-3.09 2.731-7.547 3.333-10.3.275-2.867-3.185-2.068-8.5.991-11.9 2.959-3.288 8.34-4.558 11.429-.753a1.488 1.488 0 012.828.921c-.881 3.09-1.92 6.152-2.7 9.269a2.039 2.039 0 001.972 1.526 3.84 3.84 0 002.52-.939c.774-.689 1.581-2.015 1.633-4.637A11.908 11.908 0 0014.885 2.977zm3.5 13.268c.1-.357.377-1.311.7-2.423a3.6 3.6 0 00-1.054-3.447c-1.369-1.52-4.3-1.567-6.706 1.1s-2.5 6.238-.991 7.919c1.368 1.52 4.3 1.567 6.706-1.1a6.09 6.09 0 001.35-2.048z" fill-rule="evenodd"/></svg>