<?xml version="1.0" standalone="no"?>
<!DOCTYPE svg PUBLIC "-//W3C//DTD SVG 20010904//EN"
 "http://www.w3.org/TR/2001/REC-SVG-20010904/DTD/svg10.dtd">
<svg version="1.0" xmlns="http://www.w3.org/2000/svg"
 width="1188.000000pt" height="1188.000000pt" viewBox="0 0 1188.000000 1188.000000"
 preserveAspectRatio="xMidYMid meet">

<g transform="translate(0.000000,1188.000000) scale(0.100000,-0.100000)"
fill="#000000" stroke="none">
<path d="M6654 9829 c-554 -42 -1174 -229 -1691 -510 -212 -115 -434 -268
-643 -442 -151 -126 -211 -187 -208 -211 5 -36 49 -32 104 10 71 55 389 264
459 303 33 19 85 51 117 72 111 76 538 283 726 352 796 295 1418 330 2222 126
159 -40 426 -135 535 -189 122 -61 123 -68 3 -159 -152 -114 -195 -148 -424
-325 -592 -459 -705 -546 -723 -556 -22 -11 -16 -13 -216 62 -691 261 -1401
257 -2130 -12 -686 -253 -1193 -699 -1373 -1210 -66 -190 -76 -253 -76 -510
-1 -195 2 -249 18 -315 22 -98 87 -277 131 -365 34 -66 140 -233 166 -260 8
-8 30 -35 49 -60 44 -57 210 -221 275 -272 240 -187 463 -299 810 -408 154
-48 448 -106 690 -135 177 -22 537 -30 710 -16 309 25 647 94 797 164 231 107
833 595 1008 816 91 115 139 190 146 228 13 67 -24 71 -107 11 -158 -115 -398
-291 -429 -316 -19 -15 -73 -54 -120 -87 -47 -32 -159 -114 -250 -181 -227
-167 -289 -197 -493 -233 -562 -101 -1011 -115 -1487 -46 -340 49 -565 117
-834 251 -549 274 -876 743 -876 1257 0 332 168 701 447 983 314 317 827 587
1291 680 117 23 136 25 148 12 20 -20 5 -31 -90 -73 -102 -44 -267 -145 -389
-236 -364 -273 -502 -596 -386 -904 157 -415 661 -699 1439 -810 661 -95 1338
-41 1937 156 443 145 785 349 1074 639 308 311 450 609 451 950 1 250 -75 489
-229 725 -237 361 -534 601 -998 805 -270 119 -664 209 -1039 240 -144 11
-389 11 -542 -1z"/>
<path d="M1340 4420 c-383 -37 -625 -136 -860 -349 -125 -113 -248 -315 -288
-471 -51 -201 -55 -226 -49 -330 3 -56 10 -107 16 -113 6 -6 11 -19 11 -30 0
-41 56 -176 100 -242 103 -153 246 -252 465 -324 314 -102 652 -116 1047 -45
21 4 42 12 47 18 11 13 94 406 88 413 -3 2 -40 -7 -84 -21 -269 -88 -626 -66
-801 50 -155 102 -245 287 -227 464 35 329 277 563 632 610 122 17 407 8 540
-16 65 -11 106 -15 112 -9 11 13 101 285 101 307 0 26 -72 45 -285 74 -132 18
-447 26 -565 14z"/>
<path d="M10870 4204 c-347 -50 -622 -208 -785 -450 -163 -242 -201 -571 -96
-810 33 -73 111 -172 176 -221 124 -95 318 -167 526 -198 123 -17 353 -20 484
-4 98 11 273 55 291 73 13 12 187 857 182 882 -3 14 -38 16 -328 15 -179 -1
-328 -5 -332 -9 -4 -4 -21 -66 -37 -137 -21 -92 -26 -134 -19 -142 7 -9 46
-13 129 -13 107 0 119 -2 119 -18 0 -27 -49 -264 -61 -291 -10 -24 -10 -24
-132 -18 -186 9 -289 47 -387 146 -84 84 -120 179 -120 315 0 81 36 207 81
281 49 82 153 176 241 219 147 71 412 97 638 60 52 -8 111 -17 131 -21 l37 -5
36 113 c21 63 44 127 53 142 8 16 13 30 11 32 -9 8 -184 46 -273 60 -125 19
-433 18 -565 -1z"/>
<path d="M8006 4171 c-3 -4 -30 -123 -60 -262 -89 -416 -223 -1033 -259 -1196
-19 -84 -31 -157 -27 -163 4 -7 73 -10 211 -8 l204 3 18 70 c9 39 35 156 56
260 22 105 59 276 82 380 23 105 58 273 78 375 l38 185 11 -100 c6 -55 22
-341 34 -635 l23 -535 220 0 220 0 27 50 c15 28 42 84 59 125 17 41 73 161
124 265 202 415 258 533 282 593 14 34 29 62 33 62 4 0 18 25 31 55 24 55 44
74 34 33 -3 -13 -21 -88 -40 -168 -18 -80 -68 -309 -109 -510 -42 -201 -81
-387 -86 -413 -6 -27 -10 -59 -10 -73 l0 -24 204 0 c135 0 207 4 211 11 9 13
52 206 115 514 27 132 79 375 116 540 102 463 105 477 111 528 l6 47 -355 0
c-392 0 -372 3 -395 -65 -12 -33 -203 -451 -318 -695 -41 -85 -86 -189 -101
-230 -14 -41 -30 -77 -34 -80 -4 -3 -10 -12 -13 -20 -3 -8 -6 44 -6 115 -1
215 -32 928 -42 953 l-9 22 -339 0 c-187 0 -342 -4 -345 -9z"/>
<path d="M2295 4030 c-6 -10 -95 -409 -126 -570 -21 -106 -104 -500 -159 -754
-17 -77 -28 -146 -26 -153 4 -10 113 -13 565 -13 l560 0 10 53 c6 28 15 81 21
117 6 36 13 76 16 90 l4 25 -339 0 c-187 0 -342 2 -345 5 -2 3 6 50 19 105 12
55 31 135 40 178 l17 77 308 0 c246 0 311 3 322 14 16 16 63 239 54 255 -5 8
-100 11 -312 11 -253 0 -304 2 -304 14 0 22 42 229 51 254 l9 22 329 0 c237 0
332 3 337 11 10 17 62 253 57 262 -6 11 -1101 9 -1108 -3z"/>
<path d="M3566 4031 c-19 -30 -317 -1473 -307 -1484 4 -4 106 -6 226 -5 l218
3 22 100 c12 55 39 181 59 280 21 99 41 190 46 203 l10 22 289 0 c221 0 292 3
298 13 13 20 62 249 56 263 -4 11 -60 14 -294 14 l-289 0 0 23 c1 12 13 83 28
157 l28 135 309 3 c170 1 313 6 317 10 7 7 58 240 58 263 0 12 -1067 12 -1074
0z"/>
<path d="M4795 4028 c-2 -7 -27 -121 -55 -253 -59 -277 -116 -542 -166 -768
-31 -144 -94 -452 -94 -463 0 -8 1129 -4 1134 4 5 9 46 241 46 263 0 12 -56
14 -334 14 -184 0 -337 3 -341 7 -7 7 49 296 65 336 l10 22 309 0 c242 0 311
3 319 13 19 22 61 240 50 254 -8 10 -88 13 -317 15 l-307 3 30 143 29 142 339
0 c186 0 338 2 338 3 0 4 46 214 55 255 l5 22 -555 0 c-436 0 -557 -3 -560
-12z"/>
<path d="M6050 4038 c0 -2 -13 -65 -29 -140 -15 -76 -26 -140 -23 -143 3 -3
83 -5 178 -5 95 0 175 -4 178 -8 2 -4 -11 -77 -29 -162 -107 -483 -215 -997
-215 -1017 l0 -23 224 0 c124 0 227 4 230 9 3 5 23 96 45 202 22 107 67 320
101 474 33 154 72 335 87 402 l26 123 181 2 181 3 22 90 c13 50 26 114 29 143
l7 52 -597 0 c-328 0 -596 -1 -596 -2z"/>
<path d="M7116 3341 c-9 -14 -56 -214 -56 -238 l0 -23 215 0 c214 0 215 0 220
23 31 129 51 233 48 240 -6 10 -421 9 -427 -2z"/>
</g>
</svg>
